<svg width="56" height="62" viewBox="0 0 56 62" fill="none" xmlns="http://www.w3.org/2000/svg">
<path d="M55.9977 26.8311C55.9992 26.7164 56 26.6015 56 26.4865C56 11.8584 43.464 0 28 0C12.536 0 0 11.8584 0 26.4865C0 26.6015 0.000775282 26.7164 0.00232117 26.8311C0.000776273 26.9052 0 26.9796 0 27.0541V50.75C0 56.549 4.70101 61.25 10.5 61.25H45.5C51.299 61.25 56 56.549 56 50.75V27.0541C56 26.9796 55.9992 26.9052 55.9977 26.8311Z" fill="#F2B203"/>
<path d="M28 14C18.6518 14 11.0716 21.5801 11.0716 30.9283C11.0716 40.2765 18.6518 47.8566 28 47.8566C37.3481 47.8566 44.9283 40.2765 44.9283 30.9283C44.9283 21.5801 37.3481 14 28 14ZM28 45.9639C19.6957 45.9639 12.9643 39.2326 12.9643 30.9283C12.9643 22.624 19.6957 15.8927 28 15.8927C36.3042 15.8927 43.0332 22.624 43.0332 30.9283C43.0332 39.2326 36.3019 45.9639 28 45.9639ZM24.2311 32.0757C24.2311 33.2207 23.3024 34.147 22.1597 34.147C21.0147 34.147 20.0883 33.2207 20.0883 32.0757C20.0883 30.9307 21.0147 30.0043 22.1597 30.0043C23.3024 30.0043 24.2311 30.933 24.2311 32.0757ZM35.9092 32.0757C35.9092 33.2207 34.9805 34.147 33.8379 34.147C32.6929 34.147 31.7665 33.2207 31.7665 32.0757C31.7665 30.9307 32.6929 30.0043 33.8379 30.0043C34.9829 30.0043 35.9092 30.933 35.9092 32.0757ZM37.7737 27.7613L39.6852 25.6829H35.4484C33.3277 24.2346 30.7673 23.3905 27.9976 23.3905C25.2303 23.3905 22.6769 24.2369 20.5586 25.6829H16.3124L18.2239 27.7613C17.053 28.8287 16.3194 30.3687 16.3194 32.078C16.3194 35.3038 18.9339 37.9183 22.1597 37.9183C23.6926 37.9183 25.0869 37.3282 26.1284 36.3618L28 38.3979L29.8715 36.3618C30.913 37.3282 32.3073 37.9183 33.8379 37.9183C37.0637 37.9183 39.6805 35.3038 39.6805 32.078C39.6805 30.3664 38.9446 28.8287 37.7737 27.7613ZM22.1573 36.028C19.9755 36.028 18.205 34.2575 18.205 32.0757C18.205 29.8938 19.9755 28.1234 22.1573 28.1234C24.3392 28.1234 26.1096 29.8938 26.1096 32.0757C26.1096 34.2575 24.3416 36.028 22.1573 36.028ZM28 31.9628C28 29.3624 26.1073 27.1312 23.6127 26.1766C24.9623 25.6124 26.4435 25.2996 27.9976 25.2996C29.5517 25.2996 31.0353 25.6124 32.3849 26.1766C29.8903 27.1312 28 29.3624 28 31.9628ZM33.8379 36.028C31.656 36.028 29.8856 34.2575 29.8856 32.0757C29.8856 29.8938 31.656 28.1234 33.8379 28.1234C36.0197 28.1234 37.7902 29.8938 37.7902 32.0757C37.7902 34.2575 36.0197 36.028 33.8379 36.028Z" fill="black"/>
<path d="M14.6052 44.4874C14.6052 44.4874 13.747 42.3361 11.4288 40.1589C9.11055 37.9818 6.19041 37.5844 6.19041 37.5844C6.19041 37.5844 7.22962 39.905 9.69598 42.2232C12.1647 44.5391 14.6052 44.4874 14.6052 44.4874Z" fill="black"/>
<path d="M20.448 47.6945C20.448 47.6945 19.256 46.5331 17.0835 45.6867C14.911 44.8402 12.8491 45.2517 12.8491 45.2517C12.8491 45.2517 14.2104 46.479 16.5239 47.3795C18.8351 48.2823 20.448 47.6945 20.448 47.6945Z" fill="black"/>
<path d="M26.119 48.8442C26.119 48.8442 24.8799 48.334 23.0319 48.3974C21.1839 48.4609 19.8132 49.4672 19.8132 49.4672C19.8132 49.4672 21.1957 49.9727 23.1636 49.9069C25.1339 49.841 26.119 48.8442 26.119 48.8442Z" fill="black"/>
<path d="M12.0495 39.282C12.0495 39.282 11.6498 36.9897 9.8324 34.3822C8.01496 31.7748 5.25 30.7944 5.25 30.7944C5.25 30.7944 5.79077 33.2913 7.72577 36.068C9.66077 38.8447 12.0495 39.282 12.0495 39.282Z" fill="black"/>
<path d="M9.76631 32.2968C9.76631 32.2968 10.2107 29.9738 9.46301 26.8538C8.71534 23.7338 6.51936 21.8271 6.51936 21.8271C6.51936 21.8271 6.13377 24.3922 6.92846 27.7144C7.7255 31.0365 9.76631 32.2968 9.76631 32.2968Z" fill="black"/>
<path d="M41.3924 44.4874C41.3924 44.4874 42.2505 42.3361 44.5688 40.1589C46.887 37.9818 49.8071 37.5844 49.8071 37.5844C49.8071 37.5844 48.7679 39.905 46.3016 42.2232C43.8329 44.5391 41.3924 44.4874 41.3924 44.4874Z" fill="black"/>
<path d="M35.5519 47.6945C35.5519 47.6945 36.7439 46.5331 38.9164 45.6867C41.0889 44.8402 43.1508 45.2517 43.1508 45.2517C43.1508 45.2517 41.7895 46.479 39.476 47.3795C37.1648 48.2823 35.5519 47.6945 35.5519 47.6945Z" fill="black"/>
<path d="M29.881 48.8442C29.881 48.8442 31.1201 48.334 32.9681 48.3974C34.8161 48.4609 36.1868 49.4672 36.1868 49.4672C36.1868 49.4672 34.8043 49.9727 32.8364 49.9069C30.8661 49.841 29.881 48.8442 29.881 48.8442Z" fill="black"/>
<path d="M43.9505 39.282C43.9505 39.282 44.3502 36.9897 46.1676 34.3822C47.985 31.7748 50.75 30.7944 50.75 30.7944C50.75 30.7944 50.2092 33.2913 48.2742 36.068C46.3392 38.8447 43.9505 39.282 43.9505 39.282Z" fill="black"/>
<path d="M46.2331 32.2968C46.2331 32.2968 45.7887 29.9738 46.5364 26.8538C47.2841 23.7338 49.4777 21.8271 49.4777 21.8271C49.4777 21.8271 49.8633 24.3922 49.0686 27.7144C48.2739 31.0365 46.2331 32.2968 46.2331 32.2968Z" fill="black"/>
<path d="M28.0001 50.6122C28.5195 50.6122 28.9405 50.1912 28.9405 49.6718C28.9405 49.1524 28.5195 48.7313 28.0001 48.7313C27.4807 48.7313 27.0596 49.1524 27.0596 49.6718C27.0596 50.1912 27.4807 50.6122 28.0001 50.6122Z" fill="black"/>
</svg>
